# Blender v2.79 (sub 0) OBJ File: ''
# www.blender.org
o WallCeiling_Cube.000
v -1.000001 0.200002 1.000001
v -0.999999 0.036663 0.963338
v -1.000001 -0.000002 1.000001
v -1.028110 0.036664 -0.963337
v -0.999999 0.036663 -0.800000
v -1.028110 0.036664 -0.800000
v -1.028110 0.163336 -0.800000
v -1.028110 0.163336 -0.963337
v -0.999999 0.036663 -0.963337
v -1.000001 -0.000002 -0.800001
v -0.999999 0.036663 0.800000
v -1.028110 0.036664 0.800000
v -1.000000 -0.000001 0.800001
v -0.999999 0.163337 -0.963337
v -1.000001 -0.000002 -1.000001
v -1.028110 0.036664 0.963337
v -1.028110 0.163336 0.963337
v -1.028110 0.163336 0.800000
v 1.000000 0.200003 1.000001
v 0.963338 0.036663 0.999999
v 1.000000 -0.000002 1.000001
v -0.963337 0.036664 1.028110
v -0.800000 0.036663 0.999999
v -0.800000 0.036664 1.028110
v -0.800000 0.163336 1.028110
v -0.963337 0.163336 1.028110
v -0.963338 0.036663 0.999999
v -0.800001 -0.000001 1.000001
v 0.800000 0.036663 0.999999
v 0.800000 0.036664 1.028110
v 0.800001 -0.000001 1.000000
v -0.963338 0.163337 0.999999
v 0.963337 0.036664 1.028110
v 0.800000 0.163336 1.028110
v 0.963337 0.163336 1.028110
v 1.000001 0.200002 -1.000001
v 0.999999 0.036663 -0.963338
v 1.000001 -0.000003 -1.000001
v 1.028110 0.036664 0.963337
v 0.999999 0.036663 0.800000
v 1.028110 0.036664 0.800000
v 1.028110 0.163336 0.800000
v 1.028110 0.163336 0.963337
v 0.999999 0.036663 0.963337
v 1.000001 -0.000001 0.800001
v 1.028110 0.036664 -0.800000
v 0.999998 0.036663 -0.800000
v 1.000000 -0.000001 -0.800001
v 0.999999 0.163337 0.963337
v 1.028110 0.036664 -0.963337
v 1.028110 0.163336 -0.963337
v 1.028110 0.163336 -0.800000
v -1.000001 0.200002 -1.000001
v -0.963338 0.036663 -0.999999
v 0.963337 0.036664 -1.028110
v 0.800000 0.036663 -0.999999
v 0.799999 0.036664 -1.028110
v 0.799999 0.163336 -1.028110
v 0.963337 0.163336 -1.028110
v 0.963337 0.036663 -0.999999
v 0.800001 -0.000002 -1.000001
v -0.800001 0.036663 -0.999999
v -0.800000 0.036664 -1.028110
v -0.800001 -0.000001 -1.000000
v 0.963337 0.163337 -0.999999
v -0.963338 0.036664 -1.028110
v -0.800000 0.163336 -1.028110
v -0.963338 0.163336 -1.028110
v 0.946430 -0.000002 0.946431
v 0.800001 -0.014131 0.946430
v 0.946430 -0.014132 0.946431
v 0.853571 -0.000001 0.853571
v -0.853571 -0.014131 0.853571
v -0.853571 -0.000001 0.853571
v 0.946431 -0.014131 0.800001
v 0.946431 -0.000001 0.800001
v -0.800001 -0.000001 -0.800001
v 0.800001 -0.000001 0.800001
v -0.800001 -0.000001 0.800001
v -0.853571 -0.000001 -0.853571
v 0.853571 -0.014132 -0.853571
v 0.853571 -0.000001 -0.853571
v -0.946431 -0.000002 0.946431
v -0.800001 -0.014131 0.946431
v -0.800001 -0.000001 0.946431
v 0.853571 -0.014131 0.853571
v 0.800001 -0.000001 -0.946431
v -0.800001 -0.014131 -0.946430
v -0.800001 -0.000001 -0.946430
v -0.853571 -0.014131 -0.853571
v -0.963338 0.163337 -0.999999
v 0.999999 0.163337 -0.963338
v 0.963338 0.163337 0.999999
v -0.999999 0.163337 0.963338
v 0.800001 -0.000001 0.946430
v -0.946430 -0.000001 0.800001
v -0.946431 -0.000002 -0.946431
v 0.946431 -0.000002 -0.946431
v 0.946430 -0.000001 -0.800001
v 0.800001 -0.000001 -0.800001
v -0.946431 -0.000001 -0.800001
v -0.946431 -0.014132 -0.946431
v -0.946431 -0.014132 -0.800001
v -0.946430 -0.014131 0.800001
v 0.946431 -0.014132 -0.946431
v 0.800001 -0.014132 -0.946431
v -0.946431 -0.014132 0.946431
v 0.946430 -0.014131 -0.800001
v -0.999999 0.163337 -0.800000
v -1.000001 0.200001 -0.800001
v -0.999999 0.163337 0.800000
v -1.000000 0.200001 0.800001
v -0.800000 0.163337 0.999999
v -0.800001 0.200002 1.000001
v 0.800001 0.200001 1.000000
v 0.800000 0.163337 0.999999
v 0.999999 0.163337 0.800000
v 1.000001 0.200002 0.800001
v 1.000000 0.200001 -0.800001
v 0.999998 0.163337 -0.800000
v 0.800000 0.163337 -0.999999
v 0.800001 0.200001 -1.000001
v -0.800001 0.200001 -1.000000
v -0.800001 0.163337 -0.999999
v 0.946430 0.200002 0.946431
v 0.800001 0.214131 0.946430
v 0.800001 0.200001 0.946430
v -0.853571 0.214131 0.853571
v 0.853571 0.200001 0.853571
v -0.853571 0.200001 0.853571
v 0.946431 0.214132 0.800001
v 0.946431 0.200001 0.800001
v -0.800001 0.200001 0.800001
v 0.800001 0.200001 -0.800001
v -0.800001 0.200001 -0.800001
v 0.853571 0.214131 -0.853571
v -0.853571 0.200001 -0.853571
v 0.853571 0.200001 -0.853571
v -0.800001 0.214132 0.946431
v -0.946431 0.200002 0.946431
v -0.800001 0.200001 0.946431
v 0.853571 0.214132 0.853571
v -0.800001 0.214131 -0.946430
v 0.800001 0.200001 -0.946431
v -0.800001 0.200001 -0.946430
v -0.853571 0.214131 -0.853571
v -0.946430 0.200001 0.800001
v -0.946431 0.200002 -0.946431
v 0.946431 0.200002 -0.946431
v 0.946430 0.200001 -0.800001
v 0.800001 0.200001 0.800001
v -0.946431 0.200001 -0.800001
v 0.946430 0.214132 0.946431
v -0.946431 0.214132 -0.946431
v -0.946431 0.214131 -0.800001
v -0.946430 0.214131 0.800001
v 0.946431 0.214132 -0.946431
v 0.946430 0.214131 -0.800001
v -0.946431 0.214132 0.946431
v 0.800001 0.214131 -0.946431
vt 0.739483 0.613969
vt 0.762846 0.608724
vt 0.768091 0.613968
vt 0.861735 0.289522
vt 0.857714 0.266158
vt 0.861735 0.266158
vt 0.659959 0.013938
vt 0.641840 0.037301
vt 0.641840 0.013938
vt 0.762846 0.333134
vt 0.768091 0.356496
vt 0.762846 0.356497
vt 0.857714 0.037302
vt 0.861735 0.037302
vt 0.768090 0.585362
vt 0.762846 0.585362
vt 0.744727 0.333134
vt 0.768090 0.327889
vt 0.861735 0.013938
vt 0.857714 0.013938
vt 0.641840 0.289524
vt 0.659959 0.266161
vt 0.659959 0.289524
vt 0.641840 0.266161
vt 0.659959 0.037301
vt 0.683000 0.613969
vt 0.706363 0.608724
vt 0.711607 0.613968
vt 0.888367 0.603473
vt 0.884346 0.580110
vt 0.888367 0.580110
vt 0.687834 0.289524
vt 0.705953 0.266161
vt 0.705953 0.289524
vt 0.706363 0.333134
vt 0.711607 0.356496
vt 0.706363 0.356497
vt 0.884346 0.351253
vt 0.888367 0.351253
vt 0.711607 0.585362
vt 0.706363 0.585362
vt 0.688244 0.333134
vt 0.711607 0.327889
vt 0.888367 0.327889
vt 0.884346 0.327889
vt 0.705953 0.037301
vt 0.687834 0.013938
vt 0.705953 0.013938
vt 0.687834 0.266161
vt 0.687834 0.037301
vt 0.626516 0.613969
vt 0.649879 0.608725
vt 0.655124 0.613968
vt 0.893632 0.289511
vt 0.889611 0.266149
vt 0.893632 0.266149
vt 0.797942 0.013938
vt 0.779823 0.037301
vt 0.779823 0.013938
vt 0.649879 0.333134
vt 0.655124 0.356496
vt 0.649879 0.356497
vt 0.893632 0.037305
vt 0.889610 0.037305
vt 0.655123 0.585362
vt 0.649879 0.585362
vt 0.631761 0.333134
vt 0.655124 0.327889
vt 0.893632 0.013938
vt 0.889610 0.013938
vt 0.779823 0.289524
vt 0.797942 0.266161
vt 0.797942 0.289524
vt 0.779823 0.266161
vt 0.797942 0.037301
vt 0.795966 0.613969
vt 0.819329 0.608724
vt 0.824574 0.613968
vt 0.888368 0.906912
vt 0.884347 0.883551
vt 0.888368 0.883551
vt 0.751947 0.013938
vt 0.733829 0.037301
vt 0.733829 0.013938
vt 0.819329 0.333134
vt 0.824574 0.356496
vt 0.819330 0.356497
vt 0.884346 0.654719
vt 0.888368 0.654719
vt 0.824574 0.585361
vt 0.819329 0.585361
vt 0.801211 0.333134
vt 0.824574 0.327889
vt 0.888368 0.631349
vt 0.884346 0.631349
vt 0.733829 0.266161
vt 0.751947 0.289524
vt 0.733829 0.289524
vt 0.916393 0.534532
vt 0.918891 0.507073
vt 0.919042 0.534518
vt 0.977727 0.327909
vt 0.980662 0.496049
vt 0.977727 0.496069
vt 0.749413 0.641859
vt 0.752212 0.669289
vt 0.749564 0.669304
vt 0.522522 0.634176
vt 0.293662 0.863036
vt 0.293662 0.634176
vt 0.986062 0.182098
vt 0.983127 0.013958
vt 0.986062 0.013938
vt 0.916243 0.327904
vt 0.919042 0.355334
vt 0.916393 0.355349
vt 0.977864 0.631369
vt 0.980799 0.799509
vt 0.977864 0.799529
vt 0.796117 0.669304
vt 0.798614 0.821028
vt 0.795966 0.821043
vt 0.955252 0.182098
vt 0.952317 0.013958
vt 0.955252 0.013938
vt 0.629365 0.894492
vt 0.625344 0.876373
vt 0.629365 0.876373
vt 0.045834 0.898574
vt 0.049855 0.916693
vt 0.045834 0.916693
vt 0.785330 0.894482
vt 0.781309 0.876363
vt 0.785330 0.876363
vt 0.013938 0.898574
vt 0.017959 0.916693
vt 0.013938 0.916693
vt 0.753434 0.894482
vt 0.749413 0.876363
vt 0.753434 0.876363
vt 0.687964 0.876373
vt 0.691985 0.894492
vt 0.687964 0.894492
vt 0.817226 0.894482
vt 0.813205 0.876363
vt 0.817226 0.876363
vt 0.845102 0.876363
vt 0.849123 0.894482
vt 0.845102 0.894482
vt 0.292351 0.292349
vt 0.271406 0.300012
vt 0.271406 0.292349
vt 0.021602 0.292351
vt 0.013939 0.271405
vt 0.021602 0.271405
vt 0.021600 0.021600
vt 0.042546 0.013938
vt 0.042546 0.021600
vt 0.292351 0.021601
vt 0.300014 0.042545
vt 0.292351 0.042545
vt 0.530185 0.626514
vt 0.286000 0.626514
vt 0.286000 0.870699
vt 0.522522 0.863037
vt 0.530185 0.870699
vt 0.013938 0.042546
vt 0.013938 0.013938
vt 0.021601 0.042546
vt 0.042548 0.292350
vt 0.042548 0.300013
vt 0.300014 0.271404
vt 0.292351 0.271404
vt 0.271407 0.021600
vt 0.271407 0.013938
vt 0.013939 0.300013
vt 0.300014 0.300012
vt 0.300014 0.013938
vt 0.348834 0.327889
vt 0.585358 0.341172
vt 0.341172 0.341172
vt 0.598641 0.598638
vt 0.585358 0.585356
vt 0.598641 0.577693
vt 0.327889 0.327889
vt 0.327890 0.348834
vt 0.327889 0.577693
vt 0.341172 0.585356
vt 0.598640 0.327889
vt 0.577696 0.327890
vt 0.577696 0.598638
vt 0.348835 0.598638
vt 0.327889 0.598639
vt 0.598641 0.348834
vt 0.795966 0.641859
vt 0.798766 0.669289
vt 0.826641 0.641859
vt 0.829440 0.669289
vt 0.826792 0.669304
vt 0.826792 0.848487
vt 0.829289 0.821028
vt 0.829440 0.848473
vt 0.826641 0.821043
vt 0.796117 0.848487
vt 0.798766 0.848473
vt 0.916242 0.507088
vt 0.749564 0.848487
vt 0.752061 0.821028
vt 0.752212 0.848473
vt 0.749413 0.821043
vt 0.829838 0.013938
vt 0.825818 0.037298
vt 0.825818 0.013938
vt 0.739483 0.356496
vt 0.739483 0.327890
vt 0.825817 0.266168
vt 0.829838 0.037298
vt 0.829838 0.266168
vt 0.739483 0.585362
vt 0.744727 0.356497
vt 0.744727 0.585362
vt 0.829838 0.289533
vt 0.825817 0.289533
vt 0.744727 0.608725
vt 0.852449 0.603485
vt 0.856470 0.580124
vt 0.856470 0.603485
vt 0.683000 0.356496
vt 0.682999 0.327890
vt 0.852449 0.351254
vt 0.852449 0.580124
vt 0.682999 0.585362
vt 0.688244 0.356497
vt 0.688244 0.585362
vt 0.856470 0.351254
vt 0.852449 0.327889
vt 0.856470 0.327889
vt 0.688244 0.608725
vt 0.589957 0.902087
vt 0.593979 0.878720
vt 0.593979 0.902087
vt 0.626516 0.356496
vt 0.626516 0.327890
vt 0.589958 0.649876
vt 0.589957 0.878720
vt 0.626516 0.585362
vt 0.631761 0.356497
vt 0.631760 0.585362
vt 0.593979 0.649876
vt 0.589958 0.626514
vt 0.593979 0.626514
vt 0.631761 0.608725
vt 0.558060 0.902087
vt 0.562082 0.878720
vt 0.562082 0.902087
vt 0.795966 0.356496
vt 0.795966 0.327890
vt 0.558061 0.649876
vt 0.558060 0.878720
vt 0.795966 0.585361
vt 0.801210 0.356497
vt 0.801210 0.585361
vt 0.562082 0.649876
vt 0.558061 0.626514
vt 0.562082 0.626514
vt 0.801211 0.608724
vt 0.626716 0.641844
vt 0.629164 0.669308
vt 0.626516 0.669288
vt 0.919178 0.631376
vt 0.916243 0.799516
vt 0.916243 0.631349
vt 0.660089 0.821054
vt 0.657240 0.848478
vt 0.657441 0.821034
vt 0.021600 0.863035
vt 0.250462 0.634176
vt 0.250462 0.863036
vt 0.924442 0.013965
vt 0.921507 0.182105
vt 0.921507 0.013938
vt 0.629365 0.821054
vt 0.626516 0.848478
vt 0.626716 0.821034
vt 0.947053 0.799516
vt 0.949988 0.631376
vt 0.949988 0.799543
vt 0.721337 0.669308
vt 0.718889 0.821034
vt 0.718688 0.669288
vt 0.949852 0.327916
vt 0.946917 0.496057
vt 0.946917 0.327889
vt 0.327889 0.042546
vt 0.335552 0.021601
vt 0.335552 0.042546
vt 0.356497 0.300013
vt 0.335552 0.292350
vt 0.356497 0.292350
vt 0.613963 0.271407
vt 0.606301 0.292351
vt 0.606301 0.271407
vt 0.585357 0.013938
vt 0.606302 0.021600
vt 0.585357 0.021600
vt 0.258124 0.870699
vt 0.013938 0.870698
vt 0.013939 0.626514
vt 0.258124 0.626514
vt 0.021601 0.634176
vt 0.585356 0.300014
vt 0.585356 0.292352
vt 0.327890 0.271405
vt 0.335552 0.271405
vt 0.356497 0.021601
vt 0.606302 0.042545
vt 0.356497 0.013938
vt 0.613965 0.042545
vt 0.271406 0.585356
vt 0.034883 0.598638
vt 0.027220 0.585356
vt 0.271406 0.341171
vt 0.284688 0.327889
vt 0.284688 0.348834
vt 0.013938 0.598638
vt 0.013938 0.577693
vt 0.013938 0.348834
vt 0.284688 0.598638
vt 0.284688 0.577693
vt 0.263743 0.327889
vt 0.027220 0.341171
vt 0.034883 0.327889
vt 0.013938 0.327889
vt 0.721537 0.821053
vt 0.718689 0.848478
vt 0.690813 0.821053
vt 0.687965 0.848478
vt 0.688165 0.821034
vt 0.688165 0.641844
vt 0.690613 0.669308
vt 0.687964 0.669288
vt 0.718889 0.641844
vt 0.657441 0.641844
vt 0.659888 0.669308
vt 0.657240 0.669288
vt 0.751947 0.037301
vt 0.751947 0.266161
vt 0.857714 0.289522
vt 0.884346 0.603473
vt 0.889611 0.289511
vt 0.884348 0.906912
vt 0.980662 0.327889
vt 0.752061 0.641844
vt 0.983127 0.182118
vt 0.918891 0.327889
vt 0.980799 0.631349
vt 0.952317 0.182118
vt 0.625344 0.894492
vt 0.049855 0.898574
vt 0.781309 0.894482
vt 0.017959 0.898574
vt 0.749413 0.894482
vt 0.691985 0.876373
vt 0.813205 0.894482
vt 0.849123 0.876363
vt 0.798615 0.641844
vt 0.829290 0.641844
vt 0.629365 0.641864
vt 0.919178 0.799543
vt 0.659888 0.848497
vt 0.924442 0.182132
vt 0.629164 0.848497
vt 0.947053 0.631349
vt 0.949852 0.496083
vt 0.327889 0.013938
vt 0.327890 0.300013
vt 0.613963 0.300014
vt 0.613965 0.013938
vt 0.263743 0.598638
vt 0.721337 0.848497
vt 0.690613 0.848497
vt 0.690813 0.641864
vt 0.721537 0.641864
vt 0.660089 0.641864
vn -1.0000 -0.0000 -0.0000
vn -0.0000 -1.0000 -0.0000
vn -1.0000 0.0001 0.0000
vn -0.0000 -0.0000 1.0000
vn 0.0000 0.0001 1.0000
vn 1.0000 -0.0000 0.0000
vn 1.0000 0.0001 -0.0000
vn 0.0000 -0.0000 -1.0000
vn -0.0000 0.0001 -1.0000
vn -0.0000 1.0000 0.0000
vn -1.0000 -0.0001 0.0000
vn 0.0000 -0.0001 1.0000
vn 1.0000 -0.0001 0.0000
vn -0.0000 -0.0001 -1.0000
s 1
f 1/1/1 2/2/1 3/3/1
f 4/4/2 5/5/2 6/6/2
f 4/7/1 7/8/1 8/9/1
f 9/10/1 10/11/3 5/12/3
f 6/6/2 11/13/2 12/14/2
f 5/12/3 13/15/1 11/16/1
f 14/17/1 15/18/1 9/10/1
f 16/19/2 11/13/2 2/20/2
f 17/21/1 12/22/1 16/23/1
f 2/2/1 13/15/1 3/3/1
f 18/24/1 6/25/1 12/22/1
f 19/26/4 20/27/4 21/28/4
f 22/29/2 23/30/2 24/31/2
f 22/32/4 25/33/4 26/34/4
f 27/35/4 28/36/5 23/37/5
f 24/31/2 29/38/2 30/39/2
f 23/37/5 31/40/4 29/41/4
f 32/42/4 3/43/4 27/35/4
f 33/44/2 29/38/2 20/45/2
f 34/46/4 33/47/4 35/48/4
f 20/27/4 31/40/4 21/28/4
f 34/46/4 24/49/4 30/50/4
f 36/51/6 37/52/6 38/53/6
f 39/54/2 40/55/2 41/56/2
f 39/57/6 42/58/6 43/59/6
f 44/60/6 45/61/6 40/62/7
f 46/63/2 40/55/2 47/64/2
f 40/62/7 48/65/7 47/66/7
f 49/67/6 21/68/6 44/60/6
f 50/69/2 47/64/2 37/70/2
f 51/71/6 46/72/6 50/73/6
f 37/52/6 48/65/7 38/53/6
f 52/74/6 41/75/6 46/72/6
f 53/76/8 54/77/8 15/78/8
f 55/79/2 56/80/2 57/81/2
f 55/82/8 58/83/8 59/84/8
f 60/85/8 61/86/9 56/87/9
f 57/81/2 62/88/2 63/89/2
f 56/87/9 64/90/8 62/91/8
f 65/92/8 38/93/8 60/85/8
f 66/94/2 62/88/2 54/95/2
f 67/96/8 66/97/8 68/98/8
f 54/77/8 64/90/8 15/78/8
f 69/99/4 70/100/4 71/101/4
f 72/102/8 73/103/8 74/104/8
f 69/105/6 75/106/6 76/107/6
f 77/108/2 78/109/2 79/110/2
f 80/111/4 81/112/4 82/113/4
f 83/114/4 84/115/4 85/116/4
f 82/117/1 86/118/1 72/119/1
f 87/120/8 88/121/8 89/122/8
f 74/123/6 90/124/6 80/125/6
f 91/126/1 66/127/1 54/128/1
f 59/129/6 60/130/6 55/131/6
f 92/132/8 50/133/8 37/134/8
f 43/135/4 44/136/4 39/137/4
f 93/138/6 33/139/6 20/140/6
f 26/141/1 27/142/1 22/143/1
f 94/144/4 16/145/4 2/146/4
f 8/147/8 9/148/8 4/149/8
f 69/150/2 31/151/2 95/152/2
f 83/153/2 13/154/2 96/155/2
f 97/156/2 64/157/2 89/158/2
f 98/159/2 48/160/2 99/161/2
f 80/162/2 79/110/2 74/163/2
f 72/164/2 100/165/2 82/166/2
f 82/166/2 77/108/2 80/162/2
f 74/163/2 78/109/2 72/164/2
f 97/156/2 10/167/2 15/168/2
f 101/169/2 13/154/2 10/167/2
f 85/170/2 31/151/2 28/171/2
f 99/161/2 45/172/2 76/173/2
f 87/174/2 64/157/2 61/175/2
f 83/153/2 28/171/2 3/176/2
f 69/150/2 45/172/2 21/177/2
f 98/159/2 61/175/2 38/178/2
f 88/179/2 81/180/2 90/181/2
f 71/182/2 86/183/2 75/184/2
f 102/185/2 90/181/2 103/186/2
f 104/187/2 90/181/2 73/188/2
f 105/189/2 81/180/2 106/190/2
f 73/188/2 70/191/2 84/192/2
f 107/193/2 73/188/2 84/192/2
f 108/194/2 86/183/2 81/180/2
f 98/195/8 106/196/8 87/120/8
f 97/197/1 103/198/1 101/199/1
f 83/200/1 104/201/1 107/202/1
f 101/199/1 104/201/1 96/203/1
f 97/204/8 88/121/8 102/205/8
f 85/116/4 70/100/4 95/206/4
f 98/207/6 108/208/6 105/209/6
f 76/107/6 108/208/6 99/210/6
f 8/211/10 109/212/10 14/213/10
f 14/17/1 110/214/11 53/215/1
f 111/216/10 7/217/10 18/218/10
f 112/219/1 109/220/11 111/221/1
f 111/216/10 17/222/10 94/223/10
f 112/219/1 94/224/1 1/1/1
f 26/225/10 113/226/10 32/227/10
f 32/42/4 114/228/12 1/229/4
f 34/230/10 113/226/10 25/231/10
f 115/232/4 113/233/12 116/234/4
f 116/235/10 35/236/10 93/237/10
f 115/232/4 93/238/4 19/26/4
f 43/239/10 117/240/10 49/241/10
f 49/67/6 118/242/6 19/243/6
f 52/244/10 117/240/10 42/245/10
f 119/246/13 117/247/13 120/248/13
f 120/249/10 51/250/10 92/251/10
f 119/246/13 92/252/6 36/51/6
f 59/253/10 121/254/10 65/255/10
f 65/92/8 122/256/14 36/257/8
f 67/258/10 121/254/10 58/259/10
f 123/260/8 121/261/14 124/262/8
f 124/263/10 68/264/10 91/265/10
f 123/260/8 91/266/8 53/76/8
f 125/267/4 126/268/4 127/269/4
f 128/270/8 129/271/8 130/272/8
f 131/273/6 125/274/6 132/275/6
f 133/276/10 134/277/10 135/278/10
f 136/279/4 137/280/4 138/281/4
f 139/282/4 140/283/4 141/284/4
f 142/285/1 138/286/1 129/287/1
f 143/288/8 144/289/8 145/290/8
f 146/291/6 130/292/6 137/293/6
f 115/294/10 125/295/10 127/296/10
f 112/297/10 140/298/10 147/299/10
f 123/300/10 148/301/10 145/302/10
f 119/303/10 149/304/10 150/305/10
f 133/276/10 137/306/10 130/307/10
f 134/277/10 129/308/10 138/309/10
f 135/278/10 138/309/10 137/306/10
f 151/310/10 130/307/10 129/308/10
f 148/301/10 110/311/10 152/312/10
f 152/312/10 112/297/10 147/299/10
f 114/313/10 127/296/10 141/314/10
f 132/315/10 119/303/10 150/305/10
f 144/316/10 123/300/10 145/302/10
f 140/298/10 114/313/10 141/314/10
f 125/295/10 118/317/10 132/315/10
f 149/304/10 122/318/10 144/316/10
f 136/319/10 143/320/10 146/321/10
f 142/322/10 153/323/10 131/324/10
f 146/321/10 154/325/10 155/326/10
f 156/327/10 146/321/10 155/326/10
f 157/328/10 136/319/10 158/329/10
f 126/330/10 128/331/10 139/332/10
f 159/333/10 128/331/10 156/327/10
f 158/329/10 142/322/10 131/324/10
f 160/334/8 149/335/8 144/289/8
f 155/336/1 148/337/1 152/338/1
f 140/339/1 156/340/1 147/341/1
f 156/340/1 152/338/1 147/341/1
f 148/342/8 143/288/8 145/290/8
f 126/268/4 141/284/4 127/269/4
f 149/343/6 158/344/6 150/345/6
f 158/344/6 132/275/6 150/345/6
f 67/96/8 57/346/8 63/347/8
f 1/1/1 94/224/1 2/2/1
f 4/4/2 9/348/2 5/5/2
f 4/7/1 6/25/1 7/8/1
f 9/10/1 15/18/1 10/11/3
f 6/6/2 5/5/2 11/13/2
f 5/12/3 10/11/3 13/15/1
f 14/17/1 53/215/1 15/18/1
f 16/19/2 12/14/2 11/13/2
f 17/21/1 18/24/1 12/22/1
f 2/2/1 11/16/1 13/15/1
f 18/24/1 7/8/1 6/25/1
f 19/26/4 93/238/4 20/27/4
f 22/29/2 27/349/2 23/30/2
f 22/32/4 24/49/4 25/33/4
f 27/35/4 3/43/4 28/36/5
f 24/31/2 23/30/2 29/38/2
f 23/37/5 28/36/5 31/40/4
f 32/42/4 1/229/4 3/43/4
f 33/44/2 30/39/2 29/38/2
f 34/46/4 30/50/4 33/47/4
f 20/27/4 29/41/4 31/40/4
f 34/46/4 25/33/4 24/49/4
f 36/51/6 92/252/6 37/52/6
f 39/54/2 44/350/2 40/55/2
f 39/57/6 41/75/6 42/58/6
f 44/60/6 21/68/6 45/61/6
f 46/63/2 41/56/2 40/55/2
f 40/62/7 45/61/6 48/65/7
f 49/67/6 19/243/6 21/68/6
f 50/69/2 46/63/2 47/64/2
f 51/71/6 52/74/6 46/72/6
f 37/52/6 47/66/7 48/65/7
f 52/74/6 42/58/6 41/75/6
f 53/76/8 91/266/8 54/77/8
f 55/79/2 60/351/2 56/80/2
f 55/82/8 57/346/8 58/83/8
f 60/85/8 38/93/8 61/86/9
f 57/81/2 56/80/2 62/88/2
f 56/87/9 61/86/9 64/90/8
f 65/92/8 36/257/8 38/93/8
f 66/94/2 63/89/2 62/88/2
f 67/96/8 63/347/8 66/97/8
f 54/77/8 62/91/8 64/90/8
f 69/99/4 95/206/4 70/100/4
f 72/102/8 86/352/8 73/103/8
f 69/105/6 71/353/6 75/106/6
f 77/108/2 100/165/2 78/109/2
f 80/111/4 90/354/4 81/112/4
f 83/114/4 107/355/4 84/115/4
f 82/117/1 81/356/1 86/118/1
f 87/120/8 106/196/8 88/121/8
f 74/123/6 73/357/6 90/124/6
f 91/126/1 68/358/1 66/127/1
f 59/129/6 65/359/6 60/130/6
f 92/132/8 51/360/8 50/133/8
f 43/135/4 49/361/4 44/136/4
f 93/138/6 35/362/6 33/139/6
f 26/141/1 32/363/1 27/142/1
f 94/144/4 17/364/4 16/145/4
f 8/147/8 14/365/8 9/148/8
f 69/150/2 21/177/2 31/151/2
f 83/153/2 3/176/2 13/154/2
f 97/156/2 15/168/2 64/157/2
f 98/159/2 38/178/2 48/160/2
f 80/162/2 77/108/2 79/110/2
f 72/164/2 78/109/2 100/165/2
f 82/166/2 100/165/2 77/108/2
f 74/163/2 79/110/2 78/109/2
f 97/156/2 101/169/2 10/167/2
f 101/169/2 96/155/2 13/154/2
f 85/170/2 95/152/2 31/151/2
f 99/161/2 48/160/2 45/172/2
f 87/174/2 89/158/2 64/157/2
f 83/153/2 85/170/2 28/171/2
f 69/150/2 76/173/2 45/172/2
f 98/159/2 87/174/2 61/175/2
f 88/179/2 106/190/2 81/180/2
f 71/182/2 70/191/2 86/183/2
f 102/185/2 88/179/2 90/181/2
f 104/187/2 103/186/2 90/181/2
f 105/189/2 108/194/2 81/180/2
f 73/188/2 86/183/2 70/191/2
f 107/193/2 104/187/2 73/188/2
f 108/194/2 75/184/2 86/183/2
f 98/195/8 105/366/8 106/196/8
f 97/197/1 102/367/1 103/198/1
f 83/200/1 96/203/1 104/201/1
f 101/199/1 103/198/1 104/201/1
f 97/204/8 89/122/8 88/121/8
f 85/116/4 84/115/4 70/100/4
f 98/207/6 99/210/6 108/208/6
f 76/107/6 75/106/6 108/208/6
f 8/211/10 7/217/10 109/212/10
f 14/17/1 109/220/11 110/214/11
f 111/216/10 109/212/10 7/217/10
f 112/219/1 110/214/11 109/220/11
f 111/216/10 18/218/10 17/222/10
f 112/219/1 111/221/1 94/224/1
f 26/225/10 25/231/10 113/226/10
f 32/42/4 113/233/12 114/228/12
f 34/230/10 116/235/10 113/226/10
f 115/232/4 114/228/12 113/233/12
f 116/235/10 34/230/10 35/236/10
f 115/232/4 116/234/4 93/238/4
f 43/239/10 42/245/10 117/240/10
f 49/67/6 117/247/13 118/242/6
f 52/244/10 120/249/10 117/240/10
f 119/246/13 118/242/6 117/247/13
f 120/249/10 52/244/10 51/250/10
f 119/246/13 120/248/13 92/252/6
f 59/253/10 58/259/10 121/254/10
f 65/92/8 121/261/14 122/256/14
f 67/258/10 124/263/10 121/254/10
f 123/260/8 122/256/14 121/261/14
f 124/263/10 67/258/10 68/264/10
f 123/260/8 124/262/8 91/266/8
f 125/267/4 153/368/4 126/268/4
f 128/270/8 142/369/8 129/271/8
f 131/273/6 153/370/6 125/274/6
f 133/276/10 151/310/10 134/277/10
f 136/279/4 146/371/4 137/280/4
f 139/282/4 159/372/4 140/283/4
f 142/285/1 136/373/1 138/286/1
f 143/288/8 160/334/8 144/289/8
f 146/291/6 128/374/6 130/292/6
f 115/294/10 19/375/10 125/295/10
f 112/297/10 1/376/10 140/298/10
f 123/300/10 53/377/10 148/301/10
f 119/303/10 36/378/10 149/304/10
f 133/276/10 135/278/10 137/306/10
f 134/277/10 151/310/10 129/308/10
f 135/278/10 134/277/10 138/309/10
f 151/310/10 133/276/10 130/307/10
f 148/301/10 53/377/10 110/311/10
f 152/312/10 110/311/10 112/297/10
f 114/313/10 115/294/10 127/296/10
f 132/315/10 118/317/10 119/303/10
f 144/316/10 122/318/10 123/300/10
f 140/298/10 1/376/10 114/313/10
f 125/295/10 19/375/10 118/317/10
f 149/304/10 36/378/10 122/318/10
f 136/319/10 160/379/10 143/320/10
f 142/322/10 126/330/10 153/323/10
f 146/321/10 143/320/10 154/325/10
f 156/327/10 128/331/10 146/321/10
f 157/328/10 160/379/10 136/319/10
f 126/330/10 142/322/10 128/331/10
f 159/333/10 139/332/10 128/331/10
f 158/329/10 136/319/10 142/322/10
f 160/334/8 157/380/8 149/335/8
f 155/336/1 154/381/1 148/337/1
f 140/339/1 159/382/1 156/340/1
f 156/340/1 155/336/1 152/338/1
f 148/342/8 154/383/8 143/288/8
f 126/268/4 139/282/4 141/284/4
f 149/343/6 157/384/6 158/344/6
f 158/344/6 131/273/6 132/275/6
f 67/96/8 58/83/8 57/346/8
